<?xml version="1.0" encoding="UTF-8"?>
<svg id="Layer_2" data-name="Layer 2" xmlns="http://www.w3.org/2000/svg" viewBox="0 0 1405.41 162.19">
  <defs>
    <style>
      .cls-1, .cls-2 {
        fill: none;
        stroke: #231f20;
        stroke-miterlimit: 10;
      }

      .cls-3 {
        font-size: 6px;
      }

      .cls-3, .cls-4, .cls-5, .cls-6, .cls-7, .cls-8 {
        fill: #231f20;
      }

      .cls-3, .cls-5, .cls-7, .cls-8 {
        font-family: SourceSansRoman-Bold, 'Source Sans Variable';
        font-variation-settings: 'wght' 700;
        font-weight: 700;
      }

      .cls-9, .cls-10, .cls-6 {
        stroke-width: 0px;
      }

      .cls-4 {
        font-family: SourceSansRoman-Light, 'Source Sans Variable';
        font-size: 8.09px;
        font-variation-settings: 'wght' 300;
        font-weight: 300;
      }

      .cls-11 {
        letter-spacing: -.02em;
      }

      .cls-10 {
        fill: #fff;
      }

      .cls-5 {
        font-size: 8.95px;
      }

      .cls-7, .cls-8 {
        font-size: 14px;
      }

      .cls-12 {
        letter-spacing: 0em;
      }

      .cls-13 {
        letter-spacing: -.02em;
      }

      .cls-8 {
        letter-spacing: 0em;
      }

      .cls-2 {
        stroke-linecap: square;
        stroke-width: .5px;
      }
    </style>
  </defs>
  <g id="Layer_1-2" data-name="Layer 1">
    <g>
      <g>
        <g>
          <g>
            <polygon class="cls-10" points="1.75 159.65 1.75 121.26 20.66 121.75 39.79 140.88 39.79 159.65 1.75 159.65"/>
            <path class="cls-9" d="M3.5,123.06l16.42.42,18.12,18.12v16.29H3.5v-34.84M0,119.47v41.93h41.54v-21.24l-20.14-20.14L0,119.47H0Z"/>
          </g>
          <g>
            <polygon class="cls-10" points="1.75 75.23 1.75 30.36 14.04 30.36 66.13 82.45 86.18 82.45 126.87 123.14 136.07 113.95 92.74 70.61 92.74 44.07 118.48 44.07 169.94 95.53 169.94 116.09 126.38 159.66 86.56 160.04 1.75 75.23"/>
            <path class="cls-9" d="M13.32,32.11l51.06,51.06,1.03,1.03h20.04l38.95,38.95,2.47,2.47,2.47-2.47,6.73-6.73,2.47-2.47-2.47-2.47-41.58-41.58v-24.06h23.27l50.43,50.43v19.11l-42.55,42.55-38.36.37L3.5,74.5v-42.39h9.82M14.77,28.61H0v47.34l85.85,85.85,41.26-.4,44.58-44.58v-22.01l-52.48-52.48h-28.22v29.01l42.61,42.61-6.73,6.73-39.97-39.97h-20.04L14.77,28.61h0Z"/>
          </g>
          <g>
            <polygon class="cls-10" points="134.24 40.57 128.7 35.04 65.01 35.04 43.29 13.31 43.29 2.14 134.39 2.14 160.45 28.2 160.45 40.57 134.24 40.57"/>
            <path class="cls-9" d="M133.66,3.89l25.04,25.04v9.9h-23.73l-4.51-4.51-1.03-1.03h-63.69l-20.7-20.7V3.89h88.62M135.11.39H41.54v13.65l22.75,22.75h63.69l5.54,5.54h28.68v-14.85L135.11.39h0Z"/>
          </g>
        </g>
        <g>
          <path class="cls-6" d="M83.4,55.97c.72,0,1.3.58,1.3,1.3v11.26c0,.72-.58,1.3-1.3,1.3h-11.26c-.72,0-1.3-.58-1.3-1.3v-11.26c0-.72.58-1.3,1.3-1.3h11.26M83.4,54.47h-11.26c-1.55,0-2.8,1.26-2.8,2.8v11.26c0,1.55,1.26,2.8,2.8,2.8h11.26c1.55,0,2.8-1.26,2.8-2.8v-11.26c0-1.55-1.26-2.8-2.8-2.8h0Z"/>
          <text class="cls-7" transform="translate(73.31 66.7)"><tspan x="0" y="0">G</tspan></text>
        </g>
        <g>
          <rect class="cls-6" x="6.87" y="113.23" width="4.9" height="4.9"/>
          <rect class="cls-6" y="113.23" width="4.9" height="4.9"/>
        </g>
        <g>
          <polygon class="cls-6" points="31.67 3.36 31.67 .39 40.07 .39 40.07 8.79 37.1 8.79 37.1 5.28 33.59 8.79 31.67 8.79 31.67 6.46 34.77 3.36 31.67 3.36"/>
          <polygon class="cls-6" points="21.71 3.36 21.71 .39 30.11 .39 30.11 8.79 27.15 8.79 27.15 5.28 23.63 8.79 21.71 8.79 21.71 6.46 24.81 3.36 21.71 3.36"/>
        </g>
      </g>
      <g>
        <g>
          <g>
            <polygon class="cls-10" points="207.37 160.15 207.37 81.81 222.53 66.56 231.26 66.95 273.4 22.79 273.8 15.21 284.78 2.04 324.5 2.04 324.5 41.5 262.42 103.57 262.42 160.15 207.37 160.15"/>
            <path class="cls-9" d="M322.75,3.79v36.98l-61.06,61.05-1.03,1.03v55.55h-51.55v-75.86l14.11-14.2,7.15.33,1.59.07,1.1-1.15,41.14-43.12.89-.94.07-1.29.33-6.35,10.08-12.09h37.15M326.25.29h-42.29l-11.88,14.24-.4,7.52-41.14,43.12-8.7-.4-16.22,16.32v80.8h58.55v-57.6l62.08-62.07V.29h0Z"/>
          </g>
          <g>
            <polygon class="cls-10" points="321.3 160.15 321.3 133.35 339.5 115.15 339.5 97.48 320.56 118.02 293.61 118.2 293.61 91.22 349.15 36.06 375.46 36.06 374.85 46.96 366.07 55.74 366.07 83.66 375.56 93.94 375.56 131.71 347.7 160.15 321.3 160.15"/>
            <path class="cls-9" d="M373.61,37.81l-.47,8.38-7.79,7.79-1.03,1.03v29.32l.93,1.01,8.57,9.28v36.37l-26.85,27.4h-23.91v-24.32l17.17-17.17,1.03-1.03v-22.87l-6.07,6.59-15.39,16.69-24.43.16v-24.49l54.51-54.13h23.73M377.31,34.31h-28.88l-56.57,56.18v29.47l29.47-.2,16.42-17.8v12.46l-18.2,18.2v29.27h28.88l28.88-29.47v-39.16l-9.49-10.29v-26.51l8.74-8.74.76-13.41h0Z"/>
          </g>
        </g>
        <g>
          <path class="cls-6" d="M283.62,146.18c.72,0,1.3.58,1.3,1.3v11.26c0,.72-.58,1.3-1.3,1.3h-11.26c-.72,0-1.3-.58-1.3-1.3v-11.26c0-.72.58-1.3,1.3-1.3h11.26M283.62,144.68h-11.26c-1.55,0-2.8,1.26-2.8,2.8v11.26c0,1.55,1.26,2.8,2.8,2.8h11.26c1.55,0,2.8-1.26,2.8-2.8v-11.26c0-1.55-1.26-2.8-2.8-2.8h0Z"/>
          <text class="cls-8" transform="translate(273.52 156.91)"><tspan x="0" y="0">A</tspan></text>
        </g>
        <g>
          <g>
            <path class="cls-6" d="M229.52,46.73c.33,0,.67.13.92.38l3.67,3.67c.51.51.51,1.34,0,1.85l-3.67,3.67c-.25.25-.59.38-.92.38s-.67-.13-.92-.38l-3.67-3.67c-.51-.51-.51-1.34,0-1.85l3.67-3.67c.25-.25.59-.38.92-.38M229.52,46.48c-.42,0-.81.16-1.1.46l-3.67,3.67c-.61.61-.61,1.59,0,2.2l3.67,3.67c.29.29.68.46,1.1.46s.81-.16,1.1-.46l3.67-3.67c.29-.29.46-.68.46-1.1s-.16-.81-.46-1.1l-3.67-3.67c-.29-.29-.68-.46-1.1-.46h0Z"/>
            <text class="cls-4" transform="translate(228.99 56.21) rotate(-45) scale(1.85 1)"><tspan x="0" y="0">X</tspan></text>
          </g>
          <text class="cls-5" transform="translate(236.28 48.65) rotate(-45) scale(.87 1)"><tspan x="0" y="0">014 </tspan><tspan class="cls-11" x="15.97" y="0">-</tspan><tspan x="18.79" y="0" xml:space="preserve"> 00 2022 </tspan></text>
        </g>
        <g>
          <line class="cls-2" x1="370.89" y1="60.03" x2="376.78" y2="60.03"/>
          <line class="cls-2" x1="370.89" y1="60.79" x2="376.78" y2="60.79"/>
          <line class="cls-2" x1="370.89" y1="61.54" x2="376.78" y2="61.54"/>
          <line class="cls-2" x1="370.89" y1="62.3" x2="376.78" y2="62.3"/>
          <line class="cls-2" x1="370.89" y1="63.23" x2="376.78" y2="63.23"/>
          <line class="cls-2" x1="370.89" y1="63.87" x2="376.78" y2="63.87"/>
          <line class="cls-2" x1="370.89" y1="66.46" x2="376.78" y2="66.46"/>
          <line class="cls-2" x1="370.89" y1="65.29" x2="376.78" y2="65.29"/>
          <line class="cls-2" x1="370.89" y1="65.88" x2="376.78" y2="65.88"/>
          <line class="cls-2" x1="370.89" y1="67.23" x2="376.78" y2="67.23"/>
          <line class="cls-2" x1="370.89" y1="67.92" x2="376.78" y2="67.92"/>
          <line class="cls-2" x1="370.89" y1="70.96" x2="376.78" y2="70.96"/>
          <line class="cls-2" x1="370.89" y1="71.95" x2="376.78" y2="71.95"/>
          <line class="cls-2" x1="370.89" y1="72.93" x2="376.78" y2="72.93"/>
          <line class="cls-2" x1="370.89" y1="73.92" x2="376.78" y2="73.92"/>
          <line class="cls-2" x1="370.89" y1="74.91" x2="376.78" y2="74.91"/>
          <line class="cls-2" x1="370.89" y1="75.9" x2="376.78" y2="75.9"/>
          <line class="cls-2" x1="370.89" y1="76.89" x2="376.78" y2="76.89"/>
        </g>
      </g>
      <g>
        <g>
          <g>
            <polygon class="cls-10" points="1235.46 160.15 1235.46 81.81 1250.63 66.56 1259.35 66.95 1301.49 22.79 1301.89 15.21 1312.87 2.04 1352.6 2.04 1352.6 41.5 1290.51 103.57 1290.51 160.15 1235.46 160.15"/>
            <path class="cls-9" d="M1350.85,3.79v36.98l-61.06,61.05-1.03,1.03v55.55h-51.55v-75.86l14.11-14.2,7.15.33,1.59.07,1.1-1.15,41.14-43.12.89-.94.07-1.29.33-6.35,10.08-12.09h37.15M1354.35.29h-42.29l-11.88,14.24-.4,7.52-41.14,43.12-8.7-.4-16.22,16.32v80.8h58.55v-57.6l62.08-62.07V.29h0Z"/>
          </g>
          <g>
            <polygon class="cls-10" points="1349.4 160.15 1349.4 133.35 1367.6 115.15 1367.6 97.48 1348.66 118.02 1321.71 118.2 1321.71 91.22 1377.25 36.06 1403.56 36.06 1402.94 46.96 1394.16 55.74 1394.16 83.66 1403.66 93.94 1403.66 131.71 1375.79 160.15 1349.4 160.15"/>
            <path class="cls-9" d="M1401.7,37.81l-.47,8.38-7.79,7.79-1.03,1.03v29.32l.93,1.01,8.57,9.28v36.37l-26.85,27.4h-23.91v-24.32l17.17-17.17,1.03-1.03v-22.87l-6.07,6.59-15.39,16.69-24.43.16v-24.49l54.51-54.13h23.73M1405.41,34.31h-28.88l-56.57,56.18v29.47l29.47-.2,16.42-17.8v12.46l-18.2,18.2v29.27h28.88l28.88-29.47v-39.16l-9.49-10.29v-26.51l8.74-8.74.76-13.41h0Z"/>
          </g>
        </g>
        <g>
          <path class="cls-6" d="M1311.72,146.18c.72,0,1.3.58,1.3,1.3v11.26c0,.72-.58,1.3-1.3,1.3h-11.26c-.72,0-1.3-.58-1.3-1.3v-11.26c0-.72.58-1.3,1.3-1.3h11.26M1311.72,144.68h-11.26c-1.55,0-2.8,1.26-2.8,2.8v11.26c0,1.55,1.26,2.8,2.8,2.8h11.26c1.55,0,2.8-1.26,2.8-2.8v-11.26c0-1.55-1.26-2.8-2.8-2.8h0Z"/>
          <text class="cls-8" transform="translate(1301.62 156.91)"><tspan x="0" y="0">A</tspan></text>
        </g>
        <g>
          <g>
            <path class="cls-6" d="M1257.62,46.73c.33,0,.67.13.92.38l3.67,3.67c.51.51.51,1.34,0,1.85l-3.67,3.67c-.25.25-.59.38-.92.38s-.67-.13-.92-.38l-3.67-3.67c-.51-.51-.51-1.34,0-1.85l3.67-3.67c.25-.25.59-.38.92-.38M1257.62,46.48c-.42,0-.81.16-1.1.46l-3.67,3.67c-.29.29-.46.68-.46,1.1s.16.81.46,1.1l3.67,3.67c.29.29.68.46,1.1.46s.81-.16,1.1-.46l3.67-3.67c.61-.61.61-1.59,0-2.2l-3.67-3.67c-.29-.29-.68-.46-1.1-.46h0Z"/>
            <text class="cls-4" transform="translate(1257.08 56.21) rotate(-45) scale(1.85 1)"><tspan x="0" y="0">X</tspan></text>
          </g>
          <text class="cls-5" transform="translate(1264.38 48.65) rotate(-45) scale(.87 1)"><tspan x="0" y="0">014 </tspan><tspan class="cls-11" x="15.97" y="0">-</tspan><tspan x="18.79" y="0" xml:space="preserve"> 00 2022 </tspan></text>
        </g>
        <g>
          <line class="cls-2" x1="1398.99" y1="60.03" x2="1404.87" y2="60.03"/>
          <line class="cls-2" x1="1398.99" y1="60.79" x2="1404.87" y2="60.79"/>
          <line class="cls-2" x1="1398.99" y1="61.54" x2="1404.87" y2="61.54"/>
          <line class="cls-2" x1="1398.99" y1="62.3" x2="1404.87" y2="62.3"/>
          <line class="cls-2" x1="1398.99" y1="63.23" x2="1404.87" y2="63.23"/>
          <line class="cls-2" x1="1398.99" y1="63.87" x2="1404.87" y2="63.87"/>
          <line class="cls-2" x1="1398.99" y1="66.46" x2="1404.87" y2="66.46"/>
          <line class="cls-2" x1="1398.99" y1="65.29" x2="1404.87" y2="65.29"/>
          <line class="cls-2" x1="1398.99" y1="65.88" x2="1404.87" y2="65.88"/>
          <line class="cls-2" x1="1398.99" y1="67.23" x2="1404.87" y2="67.23"/>
          <line class="cls-2" x1="1398.99" y1="67.92" x2="1404.87" y2="67.92"/>
          <line class="cls-2" x1="1398.99" y1="70.96" x2="1404.87" y2="70.96"/>
          <line class="cls-2" x1="1398.99" y1="71.95" x2="1404.87" y2="71.95"/>
          <line class="cls-2" x1="1398.99" y1="72.93" x2="1404.87" y2="72.93"/>
          <line class="cls-2" x1="1398.99" y1="73.92" x2="1404.87" y2="73.92"/>
          <line class="cls-2" x1="1398.99" y1="74.91" x2="1404.87" y2="74.91"/>
          <line class="cls-2" x1="1398.99" y1="75.9" x2="1404.87" y2="75.9"/>
          <line class="cls-2" x1="1398.99" y1="76.89" x2="1404.87" y2="76.89"/>
        </g>
      </g>
      <g>
        <g>
          <g>
            <polygon class="cls-10" points="824.23 160.15 824.23 81.81 839.39 66.56 848.12 66.95 890.26 22.79 890.65 15.21 901.64 2.04 941.36 2.04 941.36 41.5 879.28 103.57 879.28 160.15 824.23 160.15"/>
            <path class="cls-9" d="M939.61,3.79v36.98l-61.06,61.05-1.03,1.03v55.55h-51.55v-75.86l14.11-14.2,7.15.33,1.59.07,1.1-1.15,41.14-43.12.89-.94.07-1.29.33-6.35,10.08-12.09h37.15M943.11.29h-42.29l-11.88,14.24-.4,7.52-41.14,43.12-8.7-.4-16.22,16.32v80.8h58.55v-57.6l62.08-62.07V.29h0Z"/>
          </g>
          <g>
            <polygon class="cls-10" points="938.16 160.15 938.16 133.35 956.36 115.15 956.36 97.48 937.42 118.02 910.47 118.2 910.47 91.22 966.01 36.06 992.32 36.06 991.7 46.96 982.92 55.74 982.92 83.66 992.42 93.94 992.42 131.71 964.55 160.15 938.16 160.15"/>
            <path class="cls-9" d="M990.47,37.81l-.47,8.38-7.79,7.79-1.03,1.03v29.32l.93,1.01,8.57,9.28v36.37l-26.85,27.4h-23.91v-24.32l17.17-17.17,1.03-1.03v-22.87l-6.07,6.59-15.39,16.69-24.43.16v-24.49l54.51-54.13h23.73M994.17,34.31h-28.88l-56.57,56.18v29.47l29.47-.2,16.42-17.8v12.46l-18.2,18.2v29.27h28.88l28.88-29.47v-39.16l-9.49-10.29v-26.51l8.74-8.74.76-13.41h0Z"/>
          </g>
        </g>
        <g>
          <path class="cls-6" d="M900.48,146.18c.72,0,1.31.58,1.31,1.3v11.26c0,.72-.58,1.3-1.31,1.3h-11.26c-.72,0-1.31-.58-1.31-1.3v-11.26c0-.72.58-1.3,1.31-1.3h11.26M900.48,144.68h-11.26c-1.55,0-2.81,1.26-2.81,2.8v11.26c0,1.55,1.26,2.8,2.81,2.8h11.26c1.55,0,2.81-1.26,2.81-2.8v-11.26c0-1.55-1.26-2.8-2.81-2.8h0Z"/>
          <text class="cls-8" transform="translate(890.38 156.91)"><tspan x="0" y="0">A</tspan></text>
        </g>
        <g>
          <g>
            <path class="cls-6" d="M846.38,46.73c.33,0,.67.13.92.38l3.67,3.67c.51.51.51,1.34,0,1.85l-3.67,3.67c-.25.25-.59.38-.92.38s-.67-.13-.92-.38l-3.67-3.67c-.51-.51-.51-1.34,0-1.85l3.67-3.67c.25-.25.59-.38.92-.38M846.38,46.48c-.42,0-.81.16-1.1.46l-3.67,3.67c-.29.29-.46.68-.46,1.1s.16.81.46,1.1l3.67,3.67c.29.29.68.46,1.1.46s.81-.16,1.1-.46l3.67-3.67c.29-.29.46-.68.46-1.1s-.16-.81-.46-1.1l-3.67-3.67c-.29-.29-.68-.46-1.1-.46h0Z"/>
            <text class="cls-4" transform="translate(845.84 56.21) rotate(-45) scale(1.85 1)"><tspan x="0" y="0">X</tspan></text>
          </g>
          <text class="cls-5" transform="translate(853.14 48.65) rotate(-45) scale(.87 1)"><tspan x="0" y="0">014 </tspan><tspan class="cls-11" x="15.97" y="0">-</tspan><tspan x="18.79" y="0" xml:space="preserve"> 00 2022 </tspan></text>
        </g>
        <g>
          <line class="cls-2" x1="987.75" y1="60.03" x2="993.64" y2="60.03"/>
          <line class="cls-2" x1="987.75" y1="60.79" x2="993.64" y2="60.79"/>
          <line class="cls-2" x1="987.75" y1="61.54" x2="993.64" y2="61.54"/>
          <line class="cls-2" x1="987.75" y1="62.3" x2="993.64" y2="62.3"/>
          <line class="cls-2" x1="987.75" y1="63.23" x2="993.64" y2="63.23"/>
          <line class="cls-2" x1="987.75" y1="63.87" x2="993.64" y2="63.87"/>
          <line class="cls-2" x1="987.75" y1="66.46" x2="993.64" y2="66.46"/>
          <line class="cls-2" x1="987.75" y1="65.29" x2="993.64" y2="65.29"/>
          <line class="cls-2" x1="987.75" y1="65.88" x2="993.64" y2="65.88"/>
          <line class="cls-2" x1="987.75" y1="67.23" x2="993.64" y2="67.23"/>
          <line class="cls-2" x1="987.75" y1="67.92" x2="993.64" y2="67.92"/>
          <line class="cls-2" x1="987.75" y1="70.96" x2="993.64" y2="70.96"/>
          <line class="cls-2" x1="987.75" y1="71.95" x2="993.64" y2="71.95"/>
          <line class="cls-2" x1="987.75" y1="72.93" x2="993.64" y2="72.93"/>
          <line class="cls-2" x1="987.75" y1="73.92" x2="993.64" y2="73.92"/>
          <line class="cls-2" x1="987.75" y1="74.91" x2="993.64" y2="74.91"/>
          <line class="cls-2" x1="987.75" y1="75.9" x2="993.64" y2="75.9"/>
          <line class="cls-2" x1="987.75" y1="76.89" x2="993.64" y2="76.89"/>
        </g>
      </g>
      <g>
        <g>
          <polygon class="cls-10" points="564.87 91.04 544.92 71.08 544.92 2.23 561.87 2.23 581.42 21.78 581.42 91.04 564.87 91.04"/>
          <path class="cls-9" d="M561.15,3.98l18.52,18.52v66.79h-14.07l-18.93-18.93V3.98h14.48M562.6.48h-19.43v71.32l20.98,20.98h19.02V21.05L562.6.48h0Z"/>
        </g>
        <g>
          <polygon class="cls-10" points="542.74 160.44 542.74 150.8 451.66 59.72 451.66 86.69 508.23 143.26 508.23 160.44 457.54 160.44 412.83 115.3 412.83 1.76 472.93 2.23 505.86 34.84 505.86 53.73 581.42 129.29 581.42 160.44 542.74 160.44"/>
          <path class="cls-9" d="M414.58,3.53l57.62.45,31.91,31.6v18.88l1.03,1.03,74.54,74.54v28.68h-35.18v-8.61l-1.03-1.03-87.58-87.58-5.97-5.97v31.92l1.03,1.03,55.55,55.55v14.7h-48.22l-43.68-44.1V3.53M411.08,0v116.02l45.73,46.16h53.18v-19.65l-56.57-56.57v-22.02l87.58,87.58v10.66h42.18v-33.63l-75.56-75.56v-18.89L473.65.48l-62.57-.48h0Z"/>
        </g>
        <g>
          <rect class="cls-6" x="536.85" y=".48" width="4.9" height="4.9"/>
          <rect class="cls-6" x="529.98" y=".48" width="4.9" height="4.9"/>
        </g>
        <text class="cls-3" transform="translate(534.88 40.26) rotate(-90)"><tspan x="0" y="0">014 </tspan><tspan class="cls-13" x="10.7" y="0">-</tspan><tspan class="cls-12" x="12.6" y="0" xml:space="preserve"> 00 2022 </tspan></text>
        <polygon class="cls-6" points="411 151.91 411 146.31 426.87 146.31 426.87 162.19 421.27 162.19 421.27 155.54 414.62 162.19 411 162.19 411 157.77 416.86 151.91 411 151.91"/>
        <g>
          <line class="cls-2" x1="536.85" y1="6.42" x2="541.74" y2="6.42"/>
          <line class="cls-2" x1="536.85" y1="7.03" x2="541.74" y2="7.03"/>
          <line class="cls-2" x1="536.85" y1="7.65" x2="541.74" y2="7.65"/>
          <line class="cls-2" x1="536.85" y1="8.26" x2="541.74" y2="8.26"/>
          <line class="cls-2" x1="536.85" y1="9.01" x2="541.74" y2="9.01"/>
          <line class="cls-2" x1="536.85" y1="9.53" x2="541.74" y2="9.53"/>
          <line class="cls-2" x1="536.85" y1="11.62" x2="541.74" y2="11.62"/>
          <line class="cls-2" x1="536.85" y1="10.68" x2="541.74" y2="10.68"/>
          <line class="cls-2" x1="536.85" y1="11.15" x2="541.74" y2="11.15"/>
          <line class="cls-2" x1="536.85" y1="12.24" x2="541.74" y2="12.24"/>
          <line class="cls-2" x1="536.85" y1="12.8" x2="541.74" y2="12.8"/>
          <line class="cls-2" x1="536.85" y1="15.25" x2="541.74" y2="15.25"/>
          <line class="cls-2" x1="536.85" y1="16.05" x2="541.74" y2="16.05"/>
          <line class="cls-2" x1="536.85" y1="16.85" x2="541.74" y2="16.85"/>
          <line class="cls-2" x1="536.85" y1="17.65" x2="541.74" y2="17.65"/>
          <line class="cls-2" x1="536.85" y1="18.45" x2="541.74" y2="18.45"/>
          <line class="cls-2" x1="536.85" y1="19.25" x2="541.74" y2="19.25"/>
          <line class="cls-2" x1="536.85" y1="20.05" x2="541.74" y2="20.05"/>
        </g>
        <g>
          <path class="cls-6" d="M521.77,2.04c.72,0,1.3.58,1.3,1.3v11.26c0,.72-.58,1.3-1.3,1.3h-11.26c-.72,0-1.3-.58-1.3-1.3V3.34c0-.72.58-1.3,1.3-1.3h11.26M521.77.54h-11.26c-1.55,0-2.8,1.26-2.8,2.8v11.26c0,1.55,1.26,2.8,2.8,2.8h11.26c1.55,0,2.8-1.26,2.8-2.8V3.34c0-1.55-1.26-2.8-2.8-2.8h0Z"/>
          <text class="cls-7" transform="translate(511.68 12.77)"><tspan x="0" y="0">N</tspan></text>
        </g>
      </g>
      <g>
        <g>
          <g>
            <path class="cls-6" d="M699.78,32.51c.33,0,.67.13.92.38l3.67,3.67c.51.51.51,1.34,0,1.85l-3.67,3.67c-.25.25-.59.38-.92.38s-.67-.13-.92-.38l-3.67-3.67c-.51-.51-.51-1.34,0-1.85l3.67-3.67c.25-.25.59-.38.92-.38M699.78,32.26c-.42,0-.81.16-1.1.46l-3.67,3.67c-.29.29-.46.68-.46,1.1s.16.81.46,1.1l3.67,3.67c.29.29.68.46,1.1.46s.81-.16,1.1-.46l3.67-3.67c.29-.29.46-.68.46-1.1s-.16-.81-.46-1.1l-3.67-3.67c-.29-.29-.68-.46-1.1-.46h0Z"/>
            <text class="cls-4" transform="translate(695.27 36.95) rotate(45) scale(1.85 1)"><tspan x="0" y="0">X</tspan></text>
          </g>
          <text class="cls-5" transform="translate(702.83 44.25) rotate(45) scale(.87 1)"><tspan x="0" y="0">014 </tspan><tspan class="cls-11" x="15.97" y="0">-</tspan><tspan x="18.79" y="0" xml:space="preserve"> 00 2022 </tspan></text>
        </g>
        <g>
          <polygon class="cls-10" points="641.47 160.29 617.96 137.92 617.96 111.67 645.41 111.67 652.93 119.49 672.16 119.49 672.16 104.91 659.5 104.91 617.96 63.38 617.96 1.96 635.11 2.66 707.53 75.07 707.53 160.29 641.47 160.29"/>
          <path class="cls-9" d="M619.66,3.73l14.72.59,71.45,71.45v82.82h-63.68l-22.49-21.4v-23.82h25.02l6.51,6.77,1,1.04h21.66v-17.98h-13.66l-40.54-40.54V3.73M616.26.19v63.89l42.53,42.53h11.67v11.18h-16.81l-7.52-7.81h-29.87v28.68l24.53,23.34h68.44v-87.63L635.85.98l-19.58-.79h0Z"/>
        </g>
        <g>
          <polygon class="cls-10" points="722.67 160.29 722.67 134.45 747.72 109.39 747.72 91.82 741.52 86.13 741.52 61.4 706.35 25.99 681.35 25.99 674.4 19.11 674.4 2.68 737.01 2.68 787.44 53.12 787.44 122.92 750.07 160.29 722.67 160.29"/>
          <path class="cls-9" d="M736.31,4.38l49.44,49.44v68.39l-36.38,36.38h-24.99v-23.44l24.06-24.06,1-1v-19.02l-1.1-1.01-5.1-4.68v-24.68l-.99-.99-34.19-34.42-1-1h-25.01l-5.94-5.88V4.38h60.2M737.71.98h-65.01v18.84l7.95,7.86h24.99l34.19,34.42v24.77l6.2,5.69v16.12l-25.05,25.05v28.25h29.8l38.37-38.37V52.41L737.71.98h0Z"/>
        </g>
        <g>
          <line class="cls-2" x1="624.4" y1="86.24" x2="628.56" y2="82.08"/>
          <line class="cls-2" x1="624.74" y1="86.58" x2="628.9" y2="82.42"/>
          <line class="cls-2" x1="625.08" y1="86.92" x2="629.24" y2="82.76"/>
          <line class="cls-2" x1="625.42" y1="87.26" x2="629.58" y2="83.1"/>
          <line class="cls-2" x1="625.84" y1="87.68" x2="630" y2="83.52"/>
          <line class="cls-2" x1="626.13" y1="87.97" x2="630.29" y2="83.81"/>
          <line class="cls-2" x1="627.29" y1="89.13" x2="631.45" y2="84.97"/>
          <line class="cls-2" x1="626.77" y1="88.61" x2="630.93" y2="84.45"/>
          <line class="cls-2" x1="627.03" y1="88.87" x2="631.19" y2="84.71"/>
          <line class="cls-2" x1="627.64" y1="89.48" x2="631.8" y2="85.32"/>
          <line class="cls-2" x1="627.95" y1="89.79" x2="632.11" y2="85.63"/>
          <line class="cls-2" x1="629.31" y1="91.16" x2="633.47" y2="87"/>
          <line class="cls-2" x1="629.76" y1="91.6" x2="633.92" y2="87.44"/>
          <line class="cls-2" x1="630.2" y1="92.05" x2="634.36" y2="87.89"/>
          <line class="cls-2" x1="630.65" y1="92.49" x2="634.81" y2="88.33"/>
          <line class="cls-2" x1="631.09" y1="92.94" x2="635.25" y2="88.78"/>
          <line class="cls-2" x1="631.54" y1="93.38" x2="635.7" y2="89.22"/>
          <line class="cls-2" x1="631.98" y1="93.83" x2="636.14" y2="89.66"/>
        </g>
        <g>
          <line class="cls-2" x1="633.17" y1="95.32" x2="637.33" y2="91.16"/>
          <line class="cls-2" x1="633.51" y1="95.66" x2="637.68" y2="91.5"/>
          <line class="cls-2" x1="633.86" y1="96" x2="638.02" y2="91.84"/>
          <line class="cls-2" x1="634.2" y1="96.34" x2="638.36" y2="92.18"/>
          <line class="cls-2" x1="634.61" y1="96.76" x2="638.77" y2="92.6"/>
          <line class="cls-2" x1="634.9" y1="97.05" x2="639.06" y2="92.88"/>
          <line class="cls-2" x1="636.07" y1="98.21" x2="640.23" y2="94.05"/>
          <line class="cls-2" x1="635.54" y1="97.69" x2="639.7" y2="93.53"/>
          <line class="cls-2" x1="635.8" y1="97.95" x2="639.96" y2="93.79"/>
          <line class="cls-2" x1="636.41" y1="98.56" x2="640.57" y2="94.4"/>
          <line class="cls-2" x1="636.72" y1="98.87" x2="640.89" y2="94.71"/>
          <line class="cls-2" x1="638.09" y1="100.23" x2="642.25" y2="96.07"/>
          <line class="cls-2" x1="638.53" y1="100.68" x2="642.69" y2="96.52"/>
          <line class="cls-2" x1="638.98" y1="101.12" x2="643.14" y2="96.96"/>
          <line class="cls-2" x1="639.42" y1="101.57" x2="643.58" y2="97.41"/>
          <line class="cls-2" x1="639.87" y1="102.01" x2="644.03" y2="97.85"/>
          <line class="cls-2" x1="640.31" y1="102.46" x2="644.47" y2="98.3"/>
          <line class="cls-2" x1="640.76" y1="102.9" x2="644.92" y2="98.74"/>
        </g>
        <g>
          <path class="cls-6" d="M736.55,93.55c.72,0,1.3.58,1.3,1.3v11.26c0,.72-.58,1.3-1.3,1.3h-11.26c-.72,0-1.3-.58-1.3-1.3v-11.26c0-.72.58-1.3,1.3-1.3h11.26M736.55,92.05h-11.26c-1.55,0-2.8,1.26-2.8,2.8v11.26c0,1.55,1.26,2.8,2.8,2.8h11.26c1.55,0,2.8-1.26,2.8-2.8v-11.26c0-1.55-1.26-2.8-2.8-2.8h0Z"/>
          <text class="cls-7" transform="translate(726.45 104.28)"><tspan x="0" y="0">D</tspan></text>
        </g>
      </g>
      <g>
        <g>
          <g>
            <polygon class="cls-10" points="1049.52 160.2 1029.58 140.25 1029.58 86.02 1041.61 86.02 1066.96 111.37 1066.96 120.08 1080.68 133.79 1080.68 160.2 1049.52 160.2"/>
            <path class="cls-9" d="M1040.89,87.77l24.32,24.32v8.7l1.03,1.03,12.69,12.69v23.93h-28.68l-18.92-18.92v-51.75h9.56M1042.34,84.27h-14.51v56.7l20.97,20.97h33.63v-28.88l-13.71-13.71v-8.7l-26.37-26.37h0Z"/>
          </g>
          <g>
            <polygon class="cls-10" points="1140.12 160.2 1029.58 49.66 1029.58 1.99 1047.98 1.99 1124.34 78.36 1124.34 92.8 1191.74 160.2 1140.12 160.2"/>
            <path class="cls-9" d="M1047.25,3.74l75.34,75.34v14.44l1.03,1.03,63.9,63.9h-46.67l-109.51-109.51V3.74h15.92M1048.7.24h-20.87v50.14l111.56,111.56h56.57l-69.87-69.87v-14.44L1048.7.24h0Z"/>
          </g>
          <g>
            <polygon class="cls-10" points="1158.35 93.57 1158.35 70.82 1125.08 37.56 1110.35 37.56 1074.78 1.99 1156.77 1.99 1198.3 43.53 1198.3 76.48 1169.78 105 1158.35 93.57"/>
            <path class="cls-9" d="M1156.04,3.74l40.51,40.51v31.5l-26.77,26.77-9.68-9.68v-22.75l-1.03-1.03-32.24-32.24-1.03-1.03h-14.74l-32.07-32.07h77.03M1157.49.24h-86.93l39.07,39.07h14.74l32.24,32.24v22.75l13.18,13.18,30.27-30.27v-34.4L1157.49.24h0Z"/>
          </g>
        </g>
        <g>
          <g>
            <path class="cls-6" d="M1043.96,70.93c.33,0,.67.13.92.38l3.67,3.67c.51.51.51,1.34,0,1.85l-3.67,3.67c-.25.25-.59.38-.92.38s-.67-.13-.92-.38l-3.67-3.67c-.51-.51-.51-1.34,0-1.85l3.67-3.67c.25-.25.59-.38.92-.38M1043.96,70.68c-.42,0-.81.16-1.1.46l-3.67,3.67c-.29.29-.46.68-.46,1.1s.16.81.46,1.1l3.67,3.67c.29.29.68.46,1.1.46s.81-.16,1.1-.46l3.67-3.67c.29-.29.46-.68.46-1.1s-.16-.81-.46-1.1l-3.67-3.67c-.29-.29-.68-.46-1.1-.46h0Z"/>
            <text class="cls-4" transform="translate(1039.46 75.37) rotate(45) scale(1.85 1)"><tspan x="0" y="0">X</tspan></text>
          </g>
          <text class="cls-5" transform="translate(1047.02 82.66) rotate(45) scale(.87 1)"><tspan x="0" y="0">014 </tspan><tspan class="cls-11" x="15.97" y="0">-</tspan><tspan x="18.79" y="0" xml:space="preserve"> 00 2022 </tspan></text>
        </g>
        <g>
          <path class="cls-6" d="M1104.11,144.64c.72,0,1.3.58,1.3,1.3v11.26c0,.72-.58,1.3-1.3,1.3h-11.26c-.72,0-1.3-.58-1.3-1.3v-11.26c0-.72.58-1.3,1.3-1.3h11.26M1104.11,143.14h-11.26c-1.55,0-2.8,1.26-2.8,2.8v11.26c0,1.55,1.26,2.8,2.8,2.8h11.26c1.55,0,2.8-1.26,2.8-2.8v-11.26c0-1.55-1.26-2.8-2.8-2.8h0Z"/>
          <text class="cls-7" transform="translate(1094.01 155.37)"><tspan x="0" y="0">R</tspan></text>
        </g>
        <g>
          <g>
            <line class="cls-2" x1="1178.74" y1="18.68" x2="1182.9" y2="14.52"/>
            <line class="cls-2" x1="1179.08" y1="19.02" x2="1183.24" y2="14.86"/>
            <line class="cls-2" x1="1179.42" y1="19.36" x2="1183.58" y2="15.2"/>
            <line class="cls-2" x1="1179.76" y1="19.7" x2="1183.92" y2="15.54"/>
            <line class="cls-2" x1="1180.18" y1="20.12" x2="1184.34" y2="15.95"/>
            <line class="cls-2" x1="1180.47" y1="20.4" x2="1184.63" y2="16.24"/>
            <line class="cls-2" x1="1181.63" y1="21.57" x2="1185.79" y2="17.41"/>
            <line class="cls-2" x1="1181.11" y1="21.05" x2="1185.27" y2="16.88"/>
            <line class="cls-2" x1="1181.37" y1="21.31" x2="1185.53" y2="17.15"/>
            <line class="cls-2" x1="1181.98" y1="21.92" x2="1186.14" y2="17.76"/>
            <line class="cls-2" x1="1182.29" y1="22.23" x2="1186.45" y2="18.07"/>
            <line class="cls-2" x1="1183.65" y1="23.59" x2="1187.82" y2="19.43"/>
            <line class="cls-2" x1="1184.1" y1="24.04" x2="1188.26" y2="19.88"/>
            <line class="cls-2" x1="1184.54" y1="24.48" x2="1188.71" y2="20.32"/>
            <line class="cls-2" x1="1184.99" y1="24.93" x2="1189.15" y2="20.77"/>
            <line class="cls-2" x1="1185.43" y1="25.37" x2="1189.6" y2="21.21"/>
            <line class="cls-2" x1="1185.88" y1="25.82" x2="1190.04" y2="21.66"/>
            <line class="cls-2" x1="1186.32" y1="26.26" x2="1190.48" y2="22.1"/>
          </g>
          <g>
            <line class="cls-2" x1="1173.14" y1="13.08" x2="1177.3" y2="8.92"/>
            <line class="cls-2" x1="1173.48" y1="13.42" x2="1177.64" y2="9.26"/>
            <line class="cls-2" x1="1173.82" y1="13.76" x2="1177.98" y2="9.6"/>
            <line class="cls-2" x1="1174.16" y1="14.1" x2="1178.32" y2="9.94"/>
            <line class="cls-2" x1="1174.58" y1="14.51" x2="1178.74" y2="10.35"/>
            <line class="cls-2" x1="1174.87" y1="14.8" x2="1179.03" y2="10.64"/>
            <line class="cls-2" x1="1176.03" y1="15.97" x2="1180.19" y2="11.81"/>
            <line class="cls-2" x1="1175.51" y1="15.45" x2="1179.67" y2="11.28"/>
            <line class="cls-2" x1="1175.77" y1="15.71" x2="1179.93" y2="11.55"/>
            <line class="cls-2" x1="1176.38" y1="16.32" x2="1180.54" y2="12.16"/>
            <line class="cls-2" x1="1176.69" y1="16.63" x2="1180.85" y2="12.47"/>
            <line class="cls-2" x1="1178.05" y1="17.99" x2="1182.22" y2="13.83"/>
            <line class="cls-2" x1="1178.5" y1="18.44" x2="1182.66" y2="14.28"/>
            <line class="cls-2" x1="1178.94" y1="18.88" x2="1183.11" y2="14.72"/>
            <line class="cls-2" x1="1179.39" y1="19.33" x2="1183.55" y2="15.17"/>
            <line class="cls-2" x1="1179.83" y1="19.77" x2="1183.99" y2="15.61"/>
            <line class="cls-2" x1="1180.28" y1="20.22" x2="1184.44" y2="16.05"/>
            <line class="cls-2" x1="1180.72" y1="20.66" x2="1184.88" y2="16.5"/>
          </g>
        </g>
        <line class="cls-1" x1="1039" y1="156.6" x2="1028.91" y2="156.6"/>
        <line class="cls-1" x1="1033.95" y1="151.57" x2="1033.95" y2="161.95"/>
      </g>
    </g>
  </g>
</svg>